<svg xmlns="http://www.w3.org/2000/svg" id="Layer_1" data-name="Layer 1" viewBox="0 0 885 885"><path d="M113.86,885H0V.334H885V885H772.866c10.775-5.557,20.723-12.4,20.953-25.834.5-29,.668-58.03-.108-87.018-.381-14.2-12.486-24.45-26.908-25.327-2.457-.15-4.916-.265-9.2-.493,3.156-3.428,5.208-5.648,7.249-7.877,37.743-41.214,66.655-87.562,82.912-141.407,9.868-32.681,13.681-66.209,15.7-100.117,3.48-58.491,7.66-116.942,10.993-175.442,1.461-25.644-13.552-46.034-37.035-52.539-23.427-6.489-46.491,3.739-58.522,26.516-2.166,4.1-4.329,4.936-8.6,4.721-30.538-1.539-52.7,18.835-54.57,49.413q-3.765,61.5-8.11,122.955c-.191,2.744-1.442,6.245-3.439,7.91-34.187,28.512-68.753,56.572-102.842,85.2-20.763,17.437-33.971,39.721-37.458,66.823-2.856,22.191-4.6,44.53-6.63,66.821-1.423,15.613-2.5,31.258-3.782,47.423-3.808,0-6.645-.014-9.483,0-22.517.128-33.406,10.909-33.437,33.184-.032,22.985.628,45.994-.212,68.948-.652,17.806,6.06,29.807,22.737,36.138H353.655c12.816-5.236,22.322-13.35,22.456-28.35.243-27.292.307-54.591-.028-81.882-.193-15.755-12.248-27.35-28.11-27.964-4.786-.185-9.585-.029-14.684-.029-2.462-31.187-5.323-61.191-7.081-91.26-2.362-40.4-17.411-73.887-50.485-98.39-5.071-3.757-9.7-8.1-14.574-12.129-25.237-20.869-50.366-41.87-75.858-62.423-3.869-3.119-6.143-5.66-6.453-10.86-2.462-41.288-5.32-82.551-7.945-123.829-1.8-28.283-24.629-49.309-52.725-47.749-5.7.316-8.374-1.057-11.206-6.17-10.8-19.5-27.756-28.309-50.062-26.444-19.012,1.59-36.894,15.43-42.061,34.494-2.414,8.905-2.613,18.748-2.061,28.061C16.243,388.568,21.03,446.991,23.8,505.511c4.008,84.658,33.179,158.818,88.957,222.575,5.024,5.742,10.077,11.459,15.531,17.659a19.159,19.159,0,0,1-3.144.926c-23.528,1.477-32.608,11.152-32.642,34.915-.03,21.836.751,43.706-.244,65.5C91.444,864.9,97.345,877.655,113.86,885ZM443.312,549.991c99.83.053,181.117-81.138,181.144-180.932A180.737,180.737,0,0,0,443.492,188.181c-100.156-.059-181.114,80.695-181.148,180.691C262.31,468.749,343.43,549.937,443.312,549.991ZM247.56,200.315c11.876,3.558,23.66,7.159,35.487,10.613,12.653,3.695,21.067-1.25,19.846-14.031-2.557-26.756,5.186-49.108,22.653-69.233,7.589-8.745,4.471-19.014-6.545-21.523-26.634-6.065-46.307-20.283-60.322-43.719-5.8-9.706-15.429-8.908-22.7.038A29.428,29.428,0,0,0,232.9,66.6c-11.5,20.776-29.179,32.325-52.187,37.944-17.171,4.194-20.009,13.085-8.626,26.8,15.059,18.146,21.885,37.684,19.986,61.434-1.449,18.124,5.86,22.509,23.37,17.215Q231.482,205.145,247.56,200.315ZM639.04,53.705c-4.53,3.6-9.4,5.78-11.62,9.524-13.395,22.562-32.194,36.781-58.15,42.5-12.81,2.822-16.053,12.741-7.434,22.749,17.014,19.755,24.269,41.668,22,67.723-1.176,13.526,7.469,19.685,19.933,14.436,24.027-10.119,47.145-10,71.132.058,12.056,5.057,20.982-1.062,19.692-13.815-2.713-26.82,5.387-49.051,22.694-69.219,7.779-9.065,4.474-19.063-7.358-21.79-26.346-6.071-45.965-20.114-59.457-43.464C648.463,58.923,643.616,57.075,639.04,53.705ZM442.932,0c-4.657,3.924-9.659,6.376-11.973,10.38-13.091,22.656-32.382,35.82-57.731,41.759C361.034,55,357.558,65.1,365.649,74.4c17.561,20.185,24.885,42.818,22.562,69.428-1.041,11.93,7.432,18.168,18.494,13.45,24.869-10.608,48.917-10.24,73.7.128,10.515,4.4,19.062-1.78,18.135-13.074-2.2-26.832,4.916-49.846,22.787-70.228,7.773-8.866,4.087-17.89-7.247-22.127-9.668-3.613-19.609-6.532-29.151-10.435a28.78,28.78,0,0,1-10.711-7.714c-6.855-8.1-12.752-17.012-19.595-25.123C451.883,5.453,447.668,3.442,442.932,0Z" fill="#FFFFFF" stroke="#FFFFFF"></path><path d="M533.07,885c-16.677-6.331-23.389-18.332-22.737-36.138.84-22.954.18-45.963.212-68.948.031-22.275,10.92-33.056,33.437-33.184,2.838-.016,5.675,0,9.483,0,1.277-16.165,2.359-31.81,3.782-47.423,2.033-22.291,3.774-44.63,6.63-66.821,3.487-27.1,16.7-49.386,37.458-66.823,34.089-28.628,68.655-56.688,102.842-85.2,2-1.665,3.248-5.166,3.439-7.91q4.285-61.462,8.11-122.955c1.872-30.578,24.032-50.952,54.57-49.413,4.276.215,6.439-.619,8.6-4.721,12.031-22.777,35.1-33,58.522-26.516,23.483,6.5,38.5,26.895,37.035,52.539-3.333,58.5-7.513,116.951-10.993,175.442-2.017,33.908-5.83,67.436-15.7,100.117C831.51,650.889,802.6,697.237,764.855,738.451c-2.041,2.229-4.093,4.449-7.249,7.877,4.281.228,6.74.343,9.2.493,14.422.877,26.527,11.126,26.908,25.327.776,28.988.6,58.018.108,87.018-.23,13.438-10.178,20.277-20.953,25.834H677.983c-5.716-4.335-10.666-9.118-7.656-17.21,2.947-7.924,9.58-8.766,16.932-8.718,24.425.16,48.853-.108,73.275.177,6.091.071,8.027-2.068,7.975-7.956q-.311-35.329,0-70.663c.048-5.693-1.451-8.161-7.736-8.145q-108.191.267-216.382-.017c-6.7-.019-8.172,2.447-8.094,8.592q.441,34.9-.006,69.8c-.086,6.368,1.865,8.482,8.325,8.4,24.422-.316,48.851-.01,73.275-.2,7.458-.057,14.134,1.1,16.684,9.041,2.542,7.919-1.8,13.115-8.347,16.9Zm46.035-138.273H589.37c38.516,0,77.04-.457,115.541.283,11.336.217,19.019-3.3,26.93-11.195,64.708-64.6,101.876-141.209,105.355-233.5,1.513-40.17,5.118-80.259,7.7-120.39,1.363-21.211,2.937-42.42,3.705-63.655a23.9,23.9,0,0,0-22.265-25.021c-13.408-.969-23.875,7.132-26.346,20.644a104.322,104.322,0,0,0-1.171,11.985q-3.208,49.443-6.337,98.893c-1.916,30.672-4.507,61.331-5.285,92.033-.417,16.442-4.566,30.878-15.563,42.555-24.82,26.354-50.277,52.11-75.626,77.961a16.962,16.962,0,0,1-8.035,4.48c-5.967,1.3-10.734-1.188-13.576-6.677-3.3-6.384-.915-11.585,3.682-16.292,23.088-23.642,46.3-47.172,69.109-71.077a61.12,61.12,0,0,0,12.077-17.518c5.91-13.812-1.567-27.648-15.994-31.606-11.6-3.182-21.808.347-30.552,7.565q-47.526,39.234-94.583,79.037c-16.733,14.111-27.028,32.282-29.351,53.955C585.019,674.283,582.393,709.5,579.105,746.727ZM763.281,477.555c3.2-50.434,6.376-100.449,9.542-150.332-16.984-3.78-29.916,5.743-31.1,22.378q-2.6,36.52-4.851,73.064c-1.011,15.97-1.845,31.951-2.732,47.475Z" fill="#FFFFFF" stroke="#FFFFFF"></path><path d="M113.86,885c-16.515-7.345-22.416-20.1-21.6-37.917,1-21.791.214-43.661.244-65.5.034-23.763,9.114-33.438,32.642-34.915a19.159,19.159,0,0,0,3.144-.926c-5.454-6.2-10.507-11.917-15.531-17.659C56.979,664.329,27.808,590.169,23.8,505.511c-2.77-58.52-7.557-116.943-11.022-175.435-.552-9.313-.353-19.156,2.061-28.061,5.167-19.064,23.049-32.9,42.061-34.494,22.306-1.865,39.267,6.947,50.062,26.444,2.832,5.113,5.511,6.486,11.206,6.17,28.1-1.56,50.926,19.466,52.725,47.749,2.625,41.278,5.483,82.541,7.945,123.829.31,5.2,2.584,7.741,6.453,10.86,25.492,20.553,50.621,41.554,75.858,62.423,4.872,4.028,9.5,8.372,14.574,12.129,33.074,24.5,48.123,57.993,50.485,98.39,1.758,30.069,4.619,60.073,7.081,91.26,5.1,0,9.9-.156,14.684.029,15.862.614,27.917,12.209,28.11,27.964.335,27.291.271,54.59.028,81.882-.134,15-9.64,23.114-22.456,28.35H260.5c-6.49-3.836-10.841-9.048-8.272-16.942,2.578-7.92,9.274-9.054,16.724-9,24.133.188,48.272-.193,72.4.229,7.343.129,9.249-2.363,9.134-9.369-.375-22.97-.325-45.953-.019-68.925.082-6.215-1.528-8.547-8.157-8.528q-107.74.306-215.483.015c-6.21-.015-8.647,1.61-8.559,8.18q.471,34.889,0,69.787c-.088,6.691,1.934,8.95,8.857,8.836,24.127-.4,48.266-.052,72.4-.216,7.36-.049,13.991.825,16.919,8.74,2.99,8.084-1.942,12.883-7.7,17.189ZM306.5,746.727a29.738,29.738,0,0,0,.42-4.323q-3.663-46.384-7.407-92.764c-2.142-26.3-11.869-48.842-32.6-66.06C236.19,558.058,205.8,532.133,174.761,507c-5.725-4.636-13.587-7.61-20.915-9.054-9.566-1.885-18.208,2.046-24.138,10.123-5.877,8.005-5.66,16.9-1.128,25.223a71.31,71.31,0,0,0,11.4,14.987c22.727,23.6,45.729,46.926,68.549,70.433,6.672,6.873,7.057,14.127,1.453,19.734-5.467,5.469-13.164,5.125-19.741-1.586-24.941-25.45-49.918-50.871-74.453-76.71C104.5,548.264,98.52,533.883,99.751,517.025a82.682,82.682,0,0,0-.313-11.184q-4-63.215-8.069-126.424c-1.361-21.212-2.232-42.473-4.3-63.616-1.482-15.132-12.931-23.839-27.3-22.5-12.947,1.205-21.992,12.145-21.762,26.423.056,3.445.331,6.887.551,10.327,3.262,51.028,6.7,102.046,9.742,153.087,2.31,38.756,5.492,77.278,18.006,114.459C85.561,654.8,119.726,702.03,163.05,743.149c2.483,2.356,7.122,3.409,10.766,3.429,41.392.234,82.786.149,124.179.149ZM152.816,469.941c-2.639-40.747-5.164-81.419-7.961-122.073-1.135-16.5-19.966-26.695-30.9-19.993,3.19,49.878,6.389,99.892,9.575,149.714Z" fill="#FFFFFF" stroke="#FFFFFF"></path><path d="M208.743,885c5.758-4.306,10.69-9.105,7.7-17.189-2.928-7.915-9.559-8.789-16.919-8.74-24.133.164-48.272-.184-72.4.216-6.923.114-8.945-2.145-8.857-8.836q.456-34.89,0-69.787c-.088-6.57,2.349-8.195,8.559-8.18q107.742.264,215.483-.015c6.629-.019,8.239,2.313,8.157,8.528-.306,22.972-.356,45.955.019,68.925.115,7.006-1.791,9.5-9.134,9.369-24.127-.422-48.266-.041-72.4-.229-7.45-.058-14.146,1.076-16.724,9-2.569,7.894,1.782,13.106,8.272,16.942Z" fill="#FFFFFF" stroke="#FFFFFF"></path><path d="M626.228,885c6.55-3.781,10.889-8.977,8.347-16.9-2.55-7.943-9.226-9.1-16.684-9.041-24.424.186-48.853-.12-73.275.2-6.46.083-8.411-2.031-8.325-8.4q.47-34.9.006-69.8c-.078-6.145,1.391-8.611,8.094-8.592q108.191.31,216.382.017c6.285-.016,7.784,2.452,7.736,8.145q-.3,35.329,0,70.663c.052,5.888-1.884,8.027-7.975,7.956-24.422-.285-48.85-.017-73.275-.177-7.352-.048-13.985.794-16.932,8.718-3.01,8.092,1.94,12.875,7.656,17.21Z" fill="#FFFFFF" stroke="#FFFFFF"></path><path d="M443.312,549.991c-99.882-.054-181-81.242-180.968-181.119.034-100,80.992-180.75,181.148-180.691A180.737,180.737,0,0,1,624.456,369.059C624.429,468.853,543.142,550.044,443.312,549.991ZM328.721,472.25c12.786-33.632,16.136-41.541,49.562-70.258-24.331-46.246-19.649-85.519,13.415-112.511a81.406,81.406,0,0,1,102.019-1.095c34.161,26.993,39.186,65.418,15.4,112.569,10.237,10.916,21.455,20.615,29.759,32.372,8.265,11.7,13.6,25.469,20.074,38.036,47.992-48.344,59.124-144.616-3.765-209.839A154.832,154.832,0,0,0,330.3,262.833C268.281,328.811,280.9,424.352,328.721,472.25Zm116.738,51.8c27.148.162,57.713-8.126,85.019-27.074,2.034-1.411,3.955-5.136,3.63-7.465-3.947-28.312-17.879-50.565-42.039-65.975-2.35-1.5-7.124-1.189-9.83.165-26.021,13.02-51.935,13.318-77.6-.383-4.76-2.54-7.8-1.651-11.6.973-22.16,15.316-35.563,36.088-40.24,62.7-.954,5.429.339,8.3,4.828,11.219C382.566,514.457,409.857,522.94,445.459,524.052ZM442.81,407.437a55.286,55.286,0,1,0-54.738-55.847A55.089,55.089,0,0,0,442.81,407.437Z" fill="#FFFFFF" stroke="#FFFFFF"></path><path d="M247.56,200.315q-16.086,4.846-32.122,9.681c-17.51,5.294-24.819.909-23.37-17.215,1.9-23.75-4.927-43.288-19.986-61.434-11.383-13.718-8.545-22.609,8.626-26.8C203.716,98.925,221.392,87.376,232.9,66.6a29.428,29.428,0,0,1,3.082-4.14c7.273-8.946,16.9-9.744,22.7-.038,14.015,23.436,33.688,37.654,60.322,43.719,11.016,2.509,14.134,12.778,6.545,21.523-17.467,20.125-25.21,42.477-22.653,69.233,1.221,12.781-7.193,17.726-19.846,14.031C271.22,207.474,259.436,203.873,247.56,200.315Zm49.1-74.323c-11.4-4.459-21.885-6.489-29.679-12.2S254.064,98.7,246.817,89.748c-9.865,19.819-25.425,31.674-49.8,34.884,17.684,16.832,23.471,35.469,19.6,59.3,21.491-11.51,40.841-11.233,62.176-.232C274.332,159.888,280.443,141.571,296.659,125.992Z" fill="#FFFFFF" stroke="#FFFFFF"></path><path d="M639.04,53.705c4.576,3.37,9.423,5.218,11.437,8.7,13.492,23.35,33.111,37.393,59.457,43.464,11.832,2.727,15.137,12.725,7.358,21.79-17.307,20.168-25.407,42.4-22.694,69.219,1.29,12.753-7.636,18.872-19.692,13.815-23.987-10.062-47.1-10.177-71.132-.058-12.464,5.249-21.109-.91-19.933-14.436,2.264-26.055-4.991-47.968-22-67.723-8.619-10.008-5.376-19.927,7.434-22.749,25.956-5.719,44.755-19.938,58.15-42.5C629.642,59.485,634.51,57.075,639.04,53.705Zm29.54,129.15c.833-12.14-.326-22.716,2.72-31.9,3.033-9.14,10.287-16.88,16.638-26.7-22.778-2.684-38.021-14.964-48.969-36.229-10.086,22.291-26.53,32.905-50.564,37.016,18.71,16.435,23.355,35.218,19.922,58.705C629.511,172.624,648.861,172.622,668.58,182.855Z" fill="#FFFFFF" stroke="#FFFFFF"></path><path d="M442.932,0c4.736,3.442,8.951,5.453,11.695,8.705,6.843,8.111,12.74,17.021,19.595,25.123a28.78,28.78,0,0,0,10.711,7.714c9.542,3.9,19.483,6.822,29.151,10.435,11.334,4.237,15.02,13.261,7.247,22.127-17.871,20.382-24.99,43.4-22.787,70.228.927,11.294-7.62,17.473-18.135,13.074-24.787-10.368-48.835-10.736-73.7-.128-11.062,4.718-19.535-1.52-18.494-13.45,2.323-26.61-5-49.243-22.562-69.428-8.091-9.3-4.615-19.4,7.579-22.261,25.349-5.939,44.64-19.1,57.731-41.759C433.273,6.376,438.275,3.924,442.932,0Zm30.013,129.125c.617-11.631-.8-22.221,2.214-31.347,3.094-9.363,10.524-17.294,16.144-25.988-9.9-3.846-20.4-5.857-28.225-11.544-7.926-5.761-13.209-15.156-20.746-24.287-9.8,20.912-25.945,31.525-49.553,35.225,18.538,16.4,22.521,35.733,20.176,59.479C434.112,118.2,453.183,119.64,472.945,129.125Z" fill="#FFFFFF" stroke="#FFFFFF"></path><path d="M579.105,746.727c3.288-37.223,5.914-72.444,9.678-107.544,2.323-21.673,12.618-39.844,29.351-53.955q47.113-39.731,94.583-79.037c8.744-7.218,18.956-10.747,30.552-7.565,14.427,3.958,21.9,17.794,15.994,31.606a61.12,61.12,0,0,1-12.077,17.518c-22.813,23.9-46.021,47.435-69.109,71.077-4.6,4.707-6.986,9.908-3.682,16.292,2.842,5.489,7.609,7.977,13.576,6.677a16.962,16.962,0,0,0,8.035-4.48c25.349-25.851,50.806-51.607,75.626-77.961,11-11.677,15.146-26.113,15.563-42.555.778-30.7,3.369-61.361,5.285-92.033q3.09-49.452,6.337-98.893a104.322,104.322,0,0,1,1.171-11.985c2.471-13.512,12.938-21.613,26.346-20.644A23.9,23.9,0,0,1,848.6,318.266c-.768,21.235-2.342,42.444-3.705,63.655-2.58,40.131-6.185,80.22-7.7,120.39-3.479,92.3-40.647,168.907-105.355,233.5-7.911,7.9-15.594,11.412-26.93,11.195-38.5-.74-77.025-.283-115.541-.283Z" fill="#FFFFFF" stroke="#FFFFFF"></path><path d="M763.281,477.555l-29.139-7.415c.887-15.524,1.721-31.5,2.732-47.475q2.313-36.539,4.851-73.064c1.182-16.635,14.114-26.158,31.1-22.378C769.657,377.106,766.482,427.121,763.281,477.555Z" fill="#FFFFFF" stroke="#FFFFFF"></path><path d="M306.5,746.727H298c-41.393,0-82.787.085-124.179-.149-3.644-.02-8.283-1.073-10.766-3.429C119.726,702.03,85.561,654.8,66.307,597.6c-12.514-37.181-15.7-75.7-18.006-114.459-3.041-51.041-6.48-102.059-9.742-153.087-.22-3.44-.495-6.882-.551-10.327-.23-14.278,8.815-25.218,21.762-26.423,14.365-1.337,25.814,7.37,27.3,22.5,2.071,21.143,2.942,42.4,4.3,63.616q4.056,63.21,8.069,126.424a82.682,82.682,0,0,1,.313,11.184c-1.231,16.858,4.749,31.239,16.036,43.126,24.535,25.839,49.512,51.26,74.453,76.71,6.577,6.711,14.274,7.055,19.741,1.586,5.6-5.607,5.219-12.861-1.453-19.734-22.82-23.507-45.822-46.837-68.549-70.433a71.31,71.31,0,0,1-11.4-14.987c-4.532-8.325-4.749-17.218,1.128-25.223,5.93-8.077,14.572-12.008,24.138-10.123,7.328,1.444,15.19,4.418,20.915,9.054,31.037,25.132,61.429,51.057,92.152,76.579,20.727,17.218,30.454,39.756,32.6,66.06q3.774,46.377,7.407,92.764A29.738,29.738,0,0,1,306.5,746.727Z" fill="#FFFFFF" stroke="#FFFFFF"></path><path d="M152.816,469.941l-29.288,7.648c-3.186-49.822-6.385-99.836-9.575-149.714,10.936-6.7,29.767,3.5,30.9,19.993C147.652,388.522,150.177,429.194,152.816,469.941Z" fill="#FFFFFF" stroke="#FFFFFF"></path><path d="M328.721,472.25c-47.819-47.9-60.44-143.439,1.582-209.417a154.832,154.832,0,0,1,224.884-1.309c62.889,65.223,51.757,161.5,3.765,209.839-6.471-12.567-11.809-26.335-20.074-38.036-8.3-11.757-19.522-21.456-29.759-32.372,23.784-47.151,18.759-85.576-15.4-112.569A81.406,81.406,0,0,0,391.7,289.481c-33.064,26.992-37.746,66.265-13.415,112.511C344.857,430.709,341.507,438.618,328.721,472.25Z" fill="#FFFFFF" stroke="#FFFFFF"></path><path d="M445.459,524.052c-35.6-1.112-62.893-9.6-87.834-25.837-4.489-2.923-5.782-5.79-4.828-11.219,4.677-26.615,18.08-47.387,40.24-62.7,3.8-2.624,6.837-3.513,11.6-.973,25.67,13.7,51.584,13.4,77.6.383,2.706-1.354,7.48-1.664,9.83-.165,24.16,15.41,38.092,37.663,42.039,65.975.325,2.329-1.6,6.054-3.63,7.465C503.172,515.926,472.607,524.214,445.459,524.052Z" fill="#FFFFFF" stroke="#FFFFFF"></path><path d="M442.81,407.437a55.286,55.286,0,1,1,55.872-54.709A55.113,55.113,0,0,1,442.81,407.437Z" fill="#FFFFFF" stroke="#FFFFFF"></path><path d="M296.659,125.992c-16.216,15.579-22.327,33.9-17.863,57.709-21.335-11-40.685-11.278-62.176.232,3.873-23.832-1.914-42.469-19.6-59.3,24.37-3.21,39.93-15.065,49.8-34.884,7.247,8.954,12.36,18.338,20.163,24.049S285.261,121.533,296.659,125.992Z" fill="#FFFFFF" stroke="#FFFFFF"></path><path d="M668.58,182.855c-19.719-10.233-39.069-10.231-60.253.9,3.433-23.487-1.212-42.27-19.922-58.7,24.034-4.111,40.478-14.725,50.564-37.016,10.948,21.265,26.191,33.545,48.969,36.229-6.351,9.819-13.605,17.559-16.638,26.7C668.254,160.139,669.413,170.715,668.58,182.855Z" fill="#FFFFFF" stroke="#FFFFFF"></path><path d="M472.945,129.125c-19.762-9.485-38.833-10.921-59.99,1.538,2.345-23.746-1.638-43.082-20.176-59.479,23.608-3.7,39.754-14.313,49.553-35.225,7.537,9.131,12.82,18.526,20.746,24.287,7.827,5.687,18.327,7.7,28.225,11.544-5.62,8.694-13.05,16.625-16.144,25.988C472.144,106.9,473.562,117.494,472.945,129.125Z" fill="#FFFFFF" stroke="#FFFFFF"></path></svg>