<svg xmlns="http://www.w3.org/2000/svg" id="Layer_1" data-name="Layer 1" viewBox="0 0 283.85 170.69"><defs><style>.cls-1{fill:#fff;}</style></defs><path class="cls-1" d="M155.9,100.39l-2.59,0-2.77,0h5.36Z"></path><path class="cls-1" d="M156.48,85.8c-1.9.06-3.87,0-5.81,0l-2.72,0Z"></path><path class="cls-1" d="M242.48,90.54c-7.39,9.11-18.63,9.88-27.67,9.88l-2.77,0H175a27.64,27.64,0,0,0,9.13-7.33,28.79,28.79,0,0,0,4.28-7.26h21.1l2.72,0c7.49.07,15.24.14,19-4.47,3-3.64,3.25-9.62.67-13.92a13.35,13.35,0,0,0-11.43-6.17h-.2L198,60.87a24.38,24.38,0,0,1-11.69-2.93h0a22.74,22.74,0,0,1-8.91-9.5,25,25,0,0,1-1.06-20.38c6.25-15.6,23.25-15.74,29.65-15.79,6.83-.06,13.75,0,20.44.06,4.74,0,9.65.08,14.46.08L229,27c-4.87,0,2,0-2.76-.09-6.63-.06-13.49-.12-20.19-.06-11.3.09-14.67,2.72-16.24,6.64a10.37,10.37,0,0,0,1,9.1c1.37,2.17,3.16,3.63,7.45,3.71l22.11.39h.17a27.75,27.75,0,0,1,23.79,13.24C250.08,69.51,249.33,82.1,242.48,90.54Z"></path><path class="cls-1" d="M156.48,85.8c-1.9.06-3.87,0-5.81,0l-2.72,0Z"></path><path class="cls-1" d="M242.48,90.54c-7.39,9.11-18.63,9.88-27.67,9.88l-2.77,0H175a27.64,27.64,0,0,0,9.13-7.33,28.79,28.79,0,0,0,4.28-7.26h21.1l2.72,0c7.49.07,15.24.14,19-4.47,3-3.64,3.25-9.62.67-13.92a13.35,13.35,0,0,0-11.43-6.17h-.2L198,60.87a24.38,24.38,0,0,1-11.69-2.93h0a22.74,22.74,0,0,1-8.91-9.5,25,25,0,0,1-1.06-20.38c6.25-15.6,23.25-15.74,29.65-15.79,6.83-.06,13.75,0,20.44.06,4.74,0,9.65.08,14.46.08L229,27c-4.87,0,2,0-2.76-.09-6.63-.06-13.49-.12-20.19-.06-11.3.09-14.67,2.72-16.24,6.64a10.37,10.37,0,0,0,1,9.1c1.37,2.17,3.16,3.63,7.45,3.71l22.11.39h.17a27.75,27.75,0,0,1,23.79,13.24C250.08,69.51,249.33,82.1,242.48,90.54Z"></path><path class="cls-1" d="M117.83,22.6,111.31,26a26.91,26.91,0,0,1,5.44-8.33l3.65,2,1.44.79Q119.83,21.54,117.83,22.6Z"></path><path class="cls-1" d="M155.9,100.39l-2.59,0-2.77,0h5.36Z"></path><path class="cls-1" d="M156.48,85.8c-1.9.06-3.87,0-5.81,0l-2.72,0Z"></path><path class="cls-1" d="M177.37,48.43a30.87,30.87,0,0,1,8.87,9.43.25.25,0,0,1,0,.07,22.74,22.74,0,0,1-8.91-9.5Z"></path><path class="cls-1" d="M121.84,20.49q-2,1.05-4,2.11a21.27,21.27,0,0,1,2.57-2.9Z"></path><path class="cls-1" d="M185.54,81.8a25.25,25.25,0,0,1-1.55,4,24.33,24.33,0,0,1-3,4.74c-6.7,8.26-16.56,9.66-25.08,9.85H100.41l-3.94-.13H96l11.64-11.64,2.8-2.82H148l2.72,0c1.94,0,3.91,0,5.81,0,5.2-.18,10-1,12.78-4a5.34,5.34,0,0,0,.39-.44c3-3.65,3.24-9.63.66-13.93A13.32,13.32,0,0,0,159,61.26h-.33l-22.23-.39c-8.62-.15-15.19-3.69-19.5-10.5a25.1,25.1,0,0,1-2.47-21.49L123.7,24l6.57-3.44L123.86,17c7.36-4.66,16.33-4.74,20.59-4.77,6.83-.06,13.75,0,20.44.05,4.75,0,9.65.09,14.46.09L167.53,27c-4.87,0,2,0-2.76-.09-6.64-.06-13.49-.11-20.2-.06-11.3.09-14.66,2.72-16.23,6.63a10.36,10.36,0,0,0,1,9.11c1.36,2.17,3.16,3.63,7.45,3.71l22.1.39H159a28.12,28.12,0,0,1,15.27,4.49h0a26.73,26.73,0,0,1,8.51,8.74c.18.3.35.6.52.9A27.55,27.55,0,0,1,185.54,81.8Z"></path><path class="cls-1" d="M155.9,100.39l-2.59,0-2.77,0h5.36Z"></path><path class="cls-1" d="M121.84,20.49q-2,1.05-4,2.11L111.31,26C101.73,31.1,92.15,36.15,82.44,41a0,0,0,0,1,0,0L86.34,28.2H79.65A25.82,25.82,0,0,0,56.77,41.9C45.29,63.72,60.94,85.67,81.62,85.67h22.14l-14.6,14.59H81.62A43.37,43.37,0,0,1,38.31,57.71C37.85,32,60.2,11.34,86.39,13.82L82.41,0a0,0,0,0,1,0,0c11.53,5.72,23,11.56,34.31,17.7l3.65,2Z"></path><path class="cls-1" d="M121.84,20.49q-2,1.05-4,2.11L111.31,26C101.73,31.1,92.15,36.15,82.44,41a0,0,0,0,1,0,0L86.34,28.2H79.65A25.82,25.82,0,0,0,56.77,41.9C45.29,63.72,60.94,85.67,81.62,85.67h22.14l-14.6,14.59H81.62A43.37,43.37,0,0,1,38.31,57.71C37.85,32,60.2,11.34,86.39,13.82L82.41,0a0,0,0,0,1,0,0c11.53,5.72,23,11.56,34.31,17.7l3.65,2Z"></path><path class="cls-1" d="M12.66,149.41a13.85,13.85,0,0,1-4.95-.87,11.71,11.71,0,0,1-4-2.48,11.53,11.53,0,0,1-2.61-3.78,12.57,12.57,0,0,1,0-9.54A11.44,11.44,0,0,1,3.77,129a11.8,11.8,0,0,1,4-2.48,13.76,13.76,0,0,1,4.94-.87,13.9,13.9,0,0,1,5.43,1,10.54,10.54,0,0,1,4.07,3l-3.45,3.15a7.77,7.77,0,0,0-2.61-2,7.35,7.35,0,0,0-3.17-.69,7.69,7.69,0,0,0-3,.55,6.71,6.71,0,0,0-3.86,3.86,8.4,8.4,0,0,0,0,6,7,7,0,0,0,1.52,2.34A7.19,7.19,0,0,0,10,144.37a7.88,7.88,0,0,0,3,.54,7.22,7.22,0,0,0,3.17-.71,8.06,8.06,0,0,0,2.61-2l3.45,3.15a10.57,10.57,0,0,1-4.07,3.06A13.63,13.63,0,0,1,12.66,149.41Z"></path><path class="cls-1" d="M36.43,149.41a13.67,13.67,0,0,1-5-.89,12.22,12.22,0,0,1-4-2.49,11.43,11.43,0,0,1-2.65-3.79,12.54,12.54,0,0,1,0-9.48A11.31,11.31,0,0,1,27.39,129a12.09,12.09,0,0,1,4-2.5,14.73,14.73,0,0,1,10,0,12.09,12.09,0,0,1,4,2.48,11.32,11.32,0,0,1,2.64,3.78,12.52,12.52,0,0,1,0,9.52,11.2,11.2,0,0,1-2.64,3.8,12.09,12.09,0,0,1-4,2.48A13.86,13.86,0,0,1,36.43,149.41Zm0-4.5a7.3,7.3,0,0,0,2.84-.54,7,7,0,0,0,2.29-1.55,7.48,7.48,0,0,0,1.53-2.33,7.87,7.87,0,0,0,.54-3,7.78,7.78,0,0,0-.54-3,7.41,7.41,0,0,0-1.53-2.34,6.85,6.85,0,0,0-2.29-1.54,7.12,7.12,0,0,0-2.84-.55,7.25,7.25,0,0,0-2.86.55,6.66,6.66,0,0,0-2.29,1.54,7.36,7.36,0,0,0-1.51,2.34,7.78,7.78,0,0,0-.54,3,7.87,7.87,0,0,0,.54,3,7.42,7.42,0,0,0,1.51,2.33,6.82,6.82,0,0,0,2.29,1.55A7.43,7.43,0,0,0,36.4,144.91Z"></path><path class="cls-1" d="M54,149V126h4.4L72,142.57H69.83V126h5.26v23h-4.4L57.11,132.45h2.14V149Z"></path><path class="cls-1" d="M89.13,149.41a18.72,18.72,0,0,1-5.31-.74,12.26,12.26,0,0,1-4.09-1.92l1.81-4A12.56,12.56,0,0,0,85,144.46a13,13,0,0,0,4.11.68,8.13,8.13,0,0,0,2.55-.33,3.18,3.18,0,0,0,1.43-.87,1.89,1.89,0,0,0,.46-1.27,1.73,1.73,0,0,0-.72-1.46,6.08,6.08,0,0,0-1.93-.89q-1.2-.34-2.61-.66c-.94-.2-1.89-.46-2.85-.75a11.16,11.16,0,0,1-2.62-1.19,5.46,5.46,0,0,1-1.91-1.94,5.84,5.84,0,0,1-.71-3,6.48,6.48,0,0,1,1-3.6,7.17,7.17,0,0,1,3.21-2.6,13.13,13.13,0,0,1,5.41-1,18.38,18.38,0,0,1,4.29.52,13,13,0,0,1,3.7,1.52l-1.68,4A13.33,13.33,0,0,0,93,130.33a12,12,0,0,0-3.16-.45,7.62,7.62,0,0,0-2.53.35,2.88,2.88,0,0,0-1.39.94,2.1,2.1,0,0,0-.45,1.31A1.78,1.78,0,0,0,86.2,134a5.46,5.46,0,0,0,1.91.87c.79.21,1.67.42,2.63.63a25.67,25.67,0,0,1,2.86.77,12.55,12.55,0,0,1,2.6,1.17,5.54,5.54,0,0,1,1.92,1.9,5.6,5.6,0,0,1,.74,3,6.25,6.25,0,0,1-1.07,3.55,7.5,7.5,0,0,1-3.23,2.6A13.28,13.28,0,0,1,89.13,149.41Z"></path><path class="cls-1" d="M107.9,149V130.34h-7.36V126h20v4.34h-7.36V149Z"></path><path class="cls-1" d="M124.44,149V126h9.83q4.8,0,7.46,2.22a7.52,7.52,0,0,1,2.67,6.1,8,8,0,0,1-1.22,4.46,7.62,7.62,0,0,1-3.45,2.82,13.28,13.28,0,0,1-5.33,1h-7l2.44-2.3V149Zm5.36-8.16-2.44-2.53h6.74a5.62,5.62,0,0,0,3.69-1.05,3.67,3.67,0,0,0,1.25-3,3.61,3.61,0,0,0-1.25-2.94,5.68,5.68,0,0,0-3.69-1h-6.74l2.44-2.53Zm9.3,8.16-5.78-8.35H139l5.78,8.35Z"></path><path class="cls-1" d="M159.85,149.41a10.41,10.41,0,0,1-7.66-2.73c-1.84-1.82-2.76-4.42-2.76-7.82V126h5.35v12.73q0,3.26,1.35,4.71a5.56,5.56,0,0,0,7.53,0Q165,142,165,138.73V126h5.23v12.86c0,3.4-.92,6-2.77,7.82A10.36,10.36,0,0,1,159.85,149.41Z"></path><path class="cls-1" d="M187.53,149.41a13.77,13.77,0,0,1-4.95-.87,11.71,11.71,0,0,1-4-2.48,11.53,11.53,0,0,1-2.61-3.78,12.57,12.57,0,0,1,0-9.54,11.44,11.44,0,0,1,2.63-3.78,11.76,11.76,0,0,1,4-2.48,14.68,14.68,0,0,1,10.38.16,10.54,10.54,0,0,1,4.07,3l-3.45,3.15a7.87,7.87,0,0,0-2.61-2,7.38,7.38,0,0,0-3.17-.69,7.65,7.65,0,0,0-3,.55,7,7,0,0,0-2.34,1.52,6.88,6.88,0,0,0-1.53,2.34,8.55,8.55,0,0,0,0,6,6.88,6.88,0,0,0,1.53,2.34,7.19,7.19,0,0,0,2.34,1.53,7.84,7.84,0,0,0,3,.54,7.25,7.25,0,0,0,3.17-.71,8.17,8.17,0,0,0,2.61-2l3.45,3.15a10.57,10.57,0,0,1-4.07,3.06A13.67,13.67,0,0,1,187.53,149.41Z"></path><path class="cls-1" d="M205.71,149V130.34h-7.36V126H218.4v4.34H211V149Z"></path><path class="cls-1" d="M222.25,149V126h5.35v23Z"></path><path class="cls-1" d="M245.19,149.41a13.71,13.71,0,0,1-5-.89,12.22,12.22,0,0,1-4-2.49,11.26,11.26,0,0,1-2.64-3.79,12.42,12.42,0,0,1,0-9.48,11.14,11.14,0,0,1,2.64-3.76,12,12,0,0,1,4-2.5,13.73,13.73,0,0,1,5-.89,14,14,0,0,1,5,.87,12,12,0,0,1,4,2.48,11.5,11.5,0,0,1,2.65,3.78,12.65,12.65,0,0,1,0,9.52,11.37,11.37,0,0,1-2.65,3.8,12,12,0,0,1-4,2.48A14,14,0,0,1,245.19,149.41Zm0-4.5a7.38,7.38,0,0,0,2.85-.54,7.1,7.1,0,0,0,3.81-3.88,7.87,7.87,0,0,0,.54-3,7.78,7.78,0,0,0-.54-3,7.08,7.08,0,0,0-1.53-2.34,6.91,6.91,0,0,0-2.28-1.54,7.2,7.2,0,0,0-2.85-.55,7.29,7.29,0,0,0-2.86.55A6.66,6.66,0,0,0,240,132.2a7.36,7.36,0,0,0-1.51,2.34,7.78,7.78,0,0,0-.54,3,7.87,7.87,0,0,0,.54,3,7.42,7.42,0,0,0,1.51,2.33,6.82,6.82,0,0,0,2.29,1.55A7.47,7.47,0,0,0,245.16,144.91Z"></path><path class="cls-1" d="M262.75,149V126h4.4l13.58,16.57H278.6V126h5.25v23h-4.4l-13.58-16.57H268V149Z"></path><path class="cls-1" d="M50.09,170.69a7.16,7.16,0,0,1-2.36-.38,4.78,4.78,0,0,1-1.77-1l.57-1.21a5.14,5.14,0,0,0,1.57.9,5.83,5.83,0,0,0,2,.35,4.56,4.56,0,0,0,1.52-.21,1.8,1.8,0,0,0,.87-.6,1.41,1.41,0,0,0,.27-.85,1.15,1.15,0,0,0-.36-.89,2.6,2.6,0,0,0-.94-.55,9.63,9.63,0,0,0-1.27-.36c-.46-.11-.92-.23-1.39-.37a5.64,5.64,0,0,1-1.28-.53,2.43,2.43,0,0,1-.93-.87,2.5,2.5,0,0,1-.36-1.41,2.86,2.86,0,0,1,.44-1.53A3.13,3.13,0,0,1,48,160.09a5.6,5.6,0,0,1,2.33-.43,7.31,7.31,0,0,1,1.86.25,5.39,5.39,0,0,1,1.61.71l-.51,1.23a4.94,4.94,0,0,0-1.46-.67,5.77,5.77,0,0,0-1.5-.21,4,4,0,0,0-1.49.24,1.78,1.78,0,0,0-.86.61,1.49,1.49,0,0,0-.27.86,1.16,1.16,0,0,0,.37.91,2.48,2.48,0,0,0,.93.54c.39.13.81.25,1.28.36l1.39.36a6.14,6.14,0,0,1,1.28.53,2.65,2.65,0,0,1,.93.86,2.45,2.45,0,0,1,.35,1.39,2.8,2.8,0,0,1-.44,1.51,3.09,3.09,0,0,1-1.38,1.13A5.75,5.75,0,0,1,50.09,170.69Z"></path><path class="cls-1" d="M63,170.57V159.79h1.55v10.78Z"></path><path class="cls-1" d="M76.33,170.57v-9.44H72.64v-1.34h8.91v1.34H77.86v9.44Z"></path><path class="cls-1" d="M89.68,170.57V159.79h7.61v1.34H91.22v8.1h6.29v1.34Zm1.41-4.82v-1.31h5.54v1.31Z"></path><path class="cls-1" d="M120.19,170.69a7.06,7.06,0,0,1-2.35-.38,4.92,4.92,0,0,1-1.78-1l.57-1.21a5.14,5.14,0,0,0,1.57.9,5.83,5.83,0,0,0,2,.35,4.62,4.62,0,0,0,1.53-.21,1.82,1.82,0,0,0,.86-.6,1.41,1.41,0,0,0,.27-.85,1.15,1.15,0,0,0-.36-.89,2.6,2.6,0,0,0-.94-.55,9.21,9.21,0,0,0-1.27-.36c-.46-.11-.92-.23-1.39-.37a5.64,5.64,0,0,1-1.28-.53,2.58,2.58,0,0,1-.93-.87,2.5,2.5,0,0,1-.35-1.41,2.86,2.86,0,0,1,.43-1.53,3.13,3.13,0,0,1,1.36-1.12,5.6,5.6,0,0,1,2.33-.43,7.45,7.45,0,0,1,1.87.25,5.32,5.32,0,0,1,1.6.71l-.51,1.23a4.94,4.94,0,0,0-1.46-.67,5.77,5.77,0,0,0-1.5-.21,4,4,0,0,0-1.49.24,1.78,1.78,0,0,0-.86.61,1.55,1.55,0,0,0-.26.86,1.18,1.18,0,0,0,.36.91,2.45,2.45,0,0,0,.94.54c.38.13.8.25,1.27.36l1.39.36a6.14,6.14,0,0,1,1.28.53,2.65,2.65,0,0,1,.93.86,2.45,2.45,0,0,1,.35,1.39,2.71,2.71,0,0,1-.44,1.51,3.09,3.09,0,0,1-1.38,1.13A5.71,5.71,0,0,1,120.19,170.69Z"></path><path class="cls-1" d="M133.07,170.57V159.79h7.6v1.34h-6.06v8.1h6.28v1.34Zm1.4-4.82v-1.31H140v1.31Z"></path><path class="cls-1" d="M149.84,170.57V159.79H154a5,5,0,0,1,3.3,1,3.39,3.39,0,0,1,1.2,2.76,3.59,3.59,0,0,1-.54,2,3.39,3.39,0,0,1-1.54,1.29,5.87,5.87,0,0,1-2.42.45h-3.36l.7-.71v4Zm1.54-3.84-.7-.75H154a3.4,3.4,0,0,0,2.24-.64,2.24,2.24,0,0,0,.76-1.8,2.21,2.21,0,0,0-.76-1.78,3.46,3.46,0,0,0-2.24-.63h-3.32l.7-.77Zm5.66,3.84-2.74-3.91H156l2.77,3.91Z"></path><path class="cls-1" d="M170.6,170.57l-4.75-10.78h1.67l4.35,10h-1l4.39-10h1.54l-4.73,10.78Z"></path><path class="cls-1" d="M184.67,170.57V159.79h1.54v10.78Z"></path><path class="cls-1" d="M200.72,170.69a6.19,6.19,0,0,1-2.27-.41,5.19,5.19,0,0,1-1.8-1.15,5.46,5.46,0,0,1-1.2-1.75,5.84,5.84,0,0,1,0-4.4,5.38,5.38,0,0,1,3-2.91,6.45,6.45,0,0,1,4.58,0,4.72,4.72,0,0,1,1.79,1.25l-1,1a4,4,0,0,0-1.39-1,4.27,4.27,0,0,0-1.64-.31,4.66,4.66,0,0,0-1.69.3,4.13,4.13,0,0,0-1.35.87,3.83,3.83,0,0,0-.88,1.31,4.31,4.31,0,0,0-.32,1.66,4.26,4.26,0,0,0,.32,1.65,3.87,3.87,0,0,0,.88,1.32,4,4,0,0,0,1.35.86,4.46,4.46,0,0,0,1.69.31,4.28,4.28,0,0,0,1.64-.32,3.85,3.85,0,0,0,1.39-1l1,1a4.85,4.85,0,0,1-1.79,1.26A6.06,6.06,0,0,1,200.72,170.69Z"></path><path class="cls-1" d="M213.33,170.57V159.79h7.61v1.34h-6.07v8.1h6.29v1.34Zm1.4-4.82v-1.31h5.55v1.31Z"></path><path class="cls-1" d="M233.25,170.69a7.12,7.12,0,0,1-2.36-.38,4.78,4.78,0,0,1-1.77-1l.57-1.21a5,5,0,0,0,1.57.9,5.79,5.79,0,0,0,2,.35,4.6,4.6,0,0,0,1.52-.21,1.77,1.77,0,0,0,.86-.6,1.36,1.36,0,0,0,.28-.85,1.15,1.15,0,0,0-.36-.89,2.69,2.69,0,0,0-.94-.55,10.09,10.09,0,0,0-1.27-.36c-.47-.11-.93-.23-1.4-.37a5.56,5.56,0,0,1-1.27-.53,2.53,2.53,0,0,1-.94-.87,2.58,2.58,0,0,1-.35-1.41,2.78,2.78,0,0,1,.44-1.53,3,3,0,0,1,1.35-1.12,5.62,5.62,0,0,1,2.34-.43,7.43,7.43,0,0,1,1.86.25,5.21,5.21,0,0,1,1.6.71l-.51,1.23a4.94,4.94,0,0,0-1.46-.67,5.64,5.64,0,0,0-1.49-.21,4,4,0,0,0-1.5.24,1.75,1.75,0,0,0-.85.61,1.49,1.49,0,0,0-.27.86,1.18,1.18,0,0,0,.36.91,2.45,2.45,0,0,0,.94.54c.39.13.81.25,1.27.36s.93.23,1.39.36a5.92,5.92,0,0,1,1.28.53,2.49,2.49,0,0,1,.93.86,2.45,2.45,0,0,1,.36,1.39,2.72,2.72,0,0,1-.45,1.51,3.09,3.09,0,0,1-1.38,1.13A5.7,5.7,0,0,1,233.25,170.69Z"></path><rect class="cls-1" y="164.47" width="40.15" height="1.94"></rect><rect class="cls-1" x="243.71" y="164.47" width="40.15" height="1.94"></rect></svg>